{"title":"Coffee.Town.2012 WEBRip XViD juggs","uid":8671882,"size":740335287,"categoryP":"video","categoryS":"movies","magnet":"?xt=urn:btih:d9ec1287fb0fe6cfb96d3ba70c72578b2c89e381&amp;dn=Coffee.Town.2012+WEBRip+XViD+juggs&amp;tr=udp%3A%2F%2Ftracker.openbittorrent.com%3A80&amp;tr=udp%3A%2F%2Fopen.demonii.com%3A1337&amp;tr=udp%3A%2F%2Ftracker.coppersurfer.tk%3A6969&amp;tr=udp%3A%2F%2Fexodus.desync.com%3A6969","seeders":7,"leechers":3,"uploader":"juggs99","files":3,"time":1373507934,"description":"Source : JHD(Thanks)\n &lt;a href=&quot;\nhttp://www.imdb.com/title/tt2234025/&quot; rel=&quot;nofollow&quot; target=&quot;_NEW&quot;&gt;\nhttp://www.imdb.com/title/tt2234025/&lt;/a&gt;\n\nFormat                                   : AVI\nFormat/Info                              : Audio Video Interleave\nFile size                                : 697 MiB\nDuration                                 : 1h 27mn\nOverall bit rate                         : 1 118 Kbps\nWriting library                          : VirtualDub build 32842/release\n\nVideo\nID                                       : 0\nFormat                                   : MPEG-4 Visual\nFormat profile                           : Advanced Simple@L5\nFormat settings, BVOP                    : 2\nFormat settings, QPel                    : No\nFormat settings, GMC                     : No warppoints\nFormat settings, Matrix                  : Default (H.263)\nMuxing mode                              : Packed bitstream\nCodec ID                                 : XVID\nCodec ID/Hint                            : XviD\nDuration                                 : 1h 27mn\nBit rate                                 : 980 Kbps\nWidth                                    : 640 pixels\nHeight                                   : 272 pixels\nDisplay aspect ratio                     : 2.35:1\nFrame rate                               : 23.976 fps\nColor space                              : YUV\nChroma subsampling                       : 4:2:0\nBit depth                                : 8 bits\nScan type                                : Progressive\nCompression mode                         : Lossy\nBits/(Pixel*Frame)                       : 0.235\nStream size                              : 611 MiB (88%)\nWriting library                          : XviD 64\n\nAudio\nID                                       : 1\nFormat                                   : MPEG Audio\nFormat version                           : Version 1\nFormat profile                           : Layer 3\nCodec ID                                 : 55\nCodec ID/Hint                            : MP3\nDuration                                 : 1h 27mn\nBit rate mode                            : Constant\nBit rate                                 : 128 Kbps\nChannel(s)                               : 2 channels\nSampling rate                            : 48.0 KHz\nCompression mode                         : Lossy\nStream size                              : 79.8 MiB (11%)\nAlignment                                : Split accross interleaves\nInterleave, duration                     : 42 ms (1.00 video frame)\nInterleave, preload duration             : 500 ms\nWriting library                          : LAME3.99r\n\nPlot\nA website manager enlists the help of his two friends in order to convince the owners of his favorite coffee shop -- which doubles as his office -- not to turn their business into a bar.\n &lt;a href=&quot;\nhttp://img441.imageshack.us/img441/7864/mqev.png&quot; rel=&quot;nofollow&quot; target=&quot;_NEW&quot;&gt;\nhttp://img441.imageshack.us/img441/7864/mqev.png&lt;/a&gt; &lt;a href=&quot;\nhttp://img546.imageshack.us/img546/3126/1d03.png&quot; rel=&quot;nofollow&quot; target=&quot;_NEW&quot;&gt;\nhttp://img546.imageshack.us/img546/3126/1d03.png&lt;/a&gt; &lt;a href=&quot;\nhttp://img198.imageshack.us/img198/364/yfvs.png&quot; rel=&quot;nofollow&quot; target=&quot;_NEW&quot;&gt;\nhttp://img198.imageshack.us/img198/364/yfvs.png&lt;/a&gt;","torrent":{"xt":"urn:btih:d9ec1287fb0fe6cfb96d3ba70c72578b2c89e381","amp;dn":"Coffee.Town.2012+WEBRip+XViD+juggs","amp;tr":["udp%3A%2F%2Ftracker.openbittorrent.com%3A80","udp%3A%2F%2Fopen.demonii.com%3A1337","udp%3A%2F%2Ftracker.coppersurfer.tk%3A6969","udp%3A%2F%2Fexodus.desync.com%3A6969"],"infoHash":"d9ec1287fb0fe6cfb96d3ba70c72578b2c89e381","infoHashBuffer":{"type":"Buffer","data":[217,236,18,135,251,15,230,207,185,109,59,167,12,114,87,139,44,137,227,129]},"announce":[],"urlList":[]}}